# xmcd
#
# Track frame offsets: 
#        150
#        19870
#        45655
#        59791
#        82089
#        108605
#        141848
#        166724
#        185897
#        202880
#
# Disc length: 2872 seconds
#
# Revision: 0
# Processed by: cddbd v1.5.2PL0 Copyright (c) Steve Scherf et al.
# Submitted via: ExactAudioCopy v0.99pb4
#
DISCID=900b360a
DTITLE=Bonnie 'Prince' Billy and The Cairo Gang - The Wonder Show of the
DTITLE=World
DYEAR=2010
DGENRE=Country
TTITLE0=Troublesome Houses
TTITLE1=Teach Me to Bear You
TTITLE2=With Cornstalks or Among Them
TTITLE3=The Sounds Are Always Begging
TTITLE4=Go Folks, Go
TTITLE5=That's What Our Love Is
TTITLE6=Merciless and Great
TTITLE7=Where Wind Blows
TTITLE8=Someone Coming Through
TTITLE9=Kids
EXTD=
EXTT0=
EXTT1=
EXTT2=
EXTT3=
EXTT4=
EXTT5=
EXTT6=
EXTT7=
EXTT8=
EXTT9=
PLAYORDER=
